<svg id="visual" viewBox="0 0 960 540" width="960" height="540" xmlns="http://www.w3.org/2000/svg" xmlns:xlink="http://www.w3.org/1999/xlink" version="1.1"><rect x="0" y="0" width="960" height="540" fill="#2E3440"></rect><path d="M0 328L17.8 327.3C35.7 326.7 71.3 325.3 106.8 332.2C142.3 339 177.7 354 213.2 363.8C248.7 373.7 284.3 378.3 320 386.5C355.7 394.7 391.3 406.3 426.8 400.5C462.3 394.7 497.7 371.3 533.2 369C568.7 366.7 604.3 385.3 640 385.2C675.7 385 711.3 366 746.8 357.3C782.3 348.7 817.7 350.3 853.2 346C888.7 341.7 924.3 331.3 942.2 326.2L960 321L960 541L942.2 541C924.3 541 888.7 541 853.2 541C817.7 541 782.3 541 746.8 541C711.3 541 675.7 541 640 541C604.3 541 568.7 541 533.2 541C497.7 541 462.3 541 426.8 541C391.3 541 355.7 541 320 541C284.3 541 248.7 541 213.2 541C177.7 541 142.3 541 106.8 541C71.3 541 35.7 541 17.8 541L0 541Z" fill="#88c0d0"></path><path d="M0 421L17.8 421.3C35.7 421.7 71.3 422.3 106.8 418.3C142.3 414.3 177.7 405.7 213.2 400.5C248.7 395.3 284.3 393.7 320 396.8C355.7 400 391.3 408 426.8 410.8C462.3 413.7 497.7 411.3 533.2 402.5C568.7 393.7 604.3 378.3 640 381.3C675.7 384.3 711.3 405.7 746.8 415.5C782.3 425.3 817.7 423.7 853.2 417.3C888.7 411 924.3 400 942.2 394.5L960 389L960 541L942.2 541C924.3 541 888.7 541 853.2 541C817.7 541 782.3 541 746.8 541C711.3 541 675.7 541 640 541C604.3 541 568.7 541 533.2 541C497.7 541 462.3 541 426.8 541C391.3 541 355.7 541 320 541C284.3 541 248.7 541 213.2 541C177.7 541 142.3 541 106.8 541C71.3 541 35.7 541 17.8 541L0 541Z" fill="#7bb4ca"></path><path d="M0 440L17.8 443.8C35.7 447.7 71.3 455.3 106.8 448.2C142.3 441 177.7 419 213.2 406C248.7 393 284.3 389 320 392.7C355.7 396.3 391.3 407.7 426.8 411.2C462.3 414.7 497.7 410.3 533.2 414.5C568.7 418.7 604.3 431.3 640 436.3C675.7 441.3 711.3 438.7 746.8 441.8C782.3 445 817.7 454 853.2 449.8C888.7 445.7 924.3 428.3 942.2 419.7L960 411L960 541L942.2 541C924.3 541 888.7 541 853.2 541C817.7 541 782.3 541 746.8 541C711.3 541 675.7 541 640 541C604.3 541 568.7 541 533.2 541C497.7 541 462.3 541 426.8 541C391.3 541 355.7 541 320 541C284.3 541 248.7 541 213.2 541C177.7 541 142.3 541 106.8 541C71.3 541 35.7 541 17.8 541L0 541Z" fill="#71a7c3"></path><path d="M0 460L17.8 458.7C35.7 457.3 71.3 454.7 106.8 455.7C142.3 456.7 177.7 461.3 213.2 460.8C248.7 460.3 284.3 454.7 320 451.7C355.7 448.7 391.3 448.3 426.8 453.5C462.3 458.7 497.7 469.3 533.2 466.7C568.7 464 604.3 448 640 440.8C675.7 433.7 711.3 435.3 746.8 434C782.3 432.7 817.7 428.3 853.2 432.8C888.7 437.3 924.3 450.7 942.2 457.3L960 464L960 541L942.2 541C924.3 541 888.7 541 853.2 541C817.7 541 782.3 541 746.8 541C711.3 541 675.7 541 640 541C604.3 541 568.7 541 533.2 541C497.7 541 462.3 541 426.8 541C391.3 541 355.7 541 320 541C284.3 541 248.7 541 213.2 541C177.7 541 142.3 541 106.8 541C71.3 541 35.7 541 17.8 541L0 541Z" fill="#689bbc"></path><path d="M0 459L17.8 464.5C35.7 470 71.3 481 106.8 482C142.3 483 177.7 474 213.2 470.5C248.7 467 284.3 469 320 472.8C355.7 476.7 391.3 482.3 426.8 478.5C462.3 474.7 497.7 461.3 533.2 463.8C568.7 466.3 604.3 484.7 640 492.7C675.7 500.7 711.3 498.3 746.8 496.5C782.3 494.7 817.7 493.3 853.2 486.7C888.7 480 924.3 468 942.2 462L960 456L960 541L942.2 541C924.3 541 888.7 541 853.2 541C817.7 541 782.3 541 746.8 541C711.3 541 675.7 541 640 541C604.3 541 568.7 541 533.2 541C497.7 541 462.3 541 426.8 541C391.3 541 355.7 541 320 541C284.3 541 248.7 541 213.2 541C177.7 541 142.3 541 106.8 541C71.3 541 35.7 541 17.8 541L0 541Z" fill="#628eb5"></path><path d="M0 489L17.8 488.2C35.7 487.3 71.3 485.7 106.8 489.3C142.3 493 177.7 502 213.2 507.5C248.7 513 284.3 515 320 515.8C355.7 516.7 391.3 516.3 426.8 513C462.3 509.7 497.7 503.3 533.2 503.2C568.7 503 604.3 509 640 510C675.7 511 711.3 507 746.8 507.8C782.3 508.7 817.7 514.3 853.2 515.5C888.7 516.7 924.3 513.3 942.2 511.7L960 510L960 541L942.2 541C924.3 541 888.7 541 853.2 541C817.7 541 782.3 541 746.8 541C711.3 541 675.7 541 640 541C604.3 541 568.7 541 533.2 541C497.7 541 462.3 541 426.8 541C391.3 541 355.7 541 320 541C284.3 541 248.7 541 213.2 541C177.7 541 142.3 541 106.8 541C71.3 541 35.7 541 17.8 541L0 541Z" fill="#5e81ac"></path></svg>